<?xml version="1.0" encoding="UTF-8" standalone="no"?>
<svg
   xmlns:osb="http://www.openswatchbook.org/uri/2009/osb"
   xmlns:dc="http://purl.org/dc/elements/1.1/"
   xmlns:cc="http://creativecommons.org/ns#"
   xmlns:rdf="http://www.w3.org/1999/02/22-rdf-syntax-ns#"
   xmlns:svg="http://www.w3.org/2000/svg"
   xmlns="http://www.w3.org/2000/svg"
   xmlns:xlink="http://www.w3.org/1999/xlink"
   xmlns:sodipodi="http://sodipodi.sourceforge.net/DTD/sodipodi-0.dtd"
   xmlns:inkscape="http://www.inkscape.org/namespaces/inkscape"
   inkscape:export-ydpi="65.019997"
   inkscape:export-xdpi="65.019997"
   inkscape:export-filename="C:\Users\mater\Desktop\logo_bw.png"
   inkscape:version="0.92.5 (2060ec1f9f, 2020-04-08)"
   sodipodi:docname="logo02.svg"
   id="svg8"
   version="1.1"
   viewBox="0 0 400 400.00001"
   height="400mm"
   width="400mm">
  <defs
     id="defs2">
    <marker
       inkscape:isstock="true"
       style="overflow:visible"
       id="DiamondL"
       refX="0.0"
       refY="0.0"
       orient="auto"
       inkscape:stockid="DiamondL">
      <path
         transform="scale(0.8)"
         style="fill-rule:evenodd;stroke:#320000;stroke-width:1pt;stroke-opacity:1;fill:#320000;fill-opacity:1"
         d="M 0,-7.0710768 L -7.0710894,0 L 0,7.0710589 L 7.0710462,0 L 0,-7.0710768 z "
         id="path3151" />
    </marker>
    <linearGradient
       inkscape:collect="always"
       id="linearGradient3046">
      <stop
         id="stop3044"
         offset="0"
         style="stop-color:#ab3507;stop-opacity:1" />
      <stop
         id="stop3042"
         offset="1"
         style="stop-color:#f82121;stop-opacity:1" />
    </linearGradient>
    <linearGradient
       inkscape:collect="always"
       id="linearGradient3030">
      <stop
         id="stop3028"
         offset="0"
         style="stop-color:#bd088f;stop-opacity:1" />
      <stop
         id="stop3026"
         offset="1"
         style="stop-color:#f4043f;stop-opacity:1" />
    </linearGradient>
    <linearGradient
       inkscape:collect="always"
       id="linearGradient3014">
      <stop
         id="stop3012"
         offset="0"
         style="stop-color:#1b1ce5;stop-opacity:1" />
      <stop
         id="stop3010"
         offset="1"
         style="stop-color:#f60cf5;stop-opacity:1" />
    </linearGradient>
    <linearGradient
       inkscape:collect="always"
       id="linearGradient2998">
      <stop
         id="stop2996"
         offset="0"
         style="stop-color:#00ca99;stop-opacity:0.9921568" />
      <stop
         id="stop2994"
         offset="1"
         style="stop-color:#17e9f5;stop-opacity:1" />
    </linearGradient>
    <linearGradient
       id="linearGradient2982"
       inkscape:collect="always">
      <stop
         style="stop-color:#f8fa00;stop-opacity:0.96078432"
         offset="0"
         id="stop2980" />
      <stop
         style="stop-color:#f49c2d;stop-opacity:1"
         offset="1"
         id="stop2978" />
    </linearGradient>
    <linearGradient
       inkscape:collect="always"
       id="linearGradient2974">
      <stop
         id="stop2972"
         offset="0"
         style="stop-color:#1d8707;stop-opacity:1" />
      <stop
         id="stop2970"
         offset="1"
         style="stop-color:#1cf53f;stop-opacity:1" />
    </linearGradient>
    <linearGradient
       id="linearGradient2703"
       inkscape:collect="always">
      <stop
         id="stop2699"
         offset="0"
         style="stop-color:#e14a4a;stop-opacity:1" />
      <stop
         id="stop2701"
         offset="1"
         style="stop-color:#78381f;stop-opacity:1" />
    </linearGradient>
    <linearGradient
       id="linearGradient2687"
       inkscape:collect="always">
      <stop
         id="stop2683"
         offset="0"
         style="stop-color:#29c542;stop-opacity:1" />
      <stop
         id="stop2685"
         offset="1"
         style="stop-color:#051201;stop-opacity:1" />
    </linearGradient>
    <linearGradient
       id="linearGradient2671"
       inkscape:collect="always">
      <stop
         id="stop2667"
         offset="0"
         style="stop-color:#ae2fbf;stop-opacity:1" />
      <stop
         id="stop2669"
         offset="1"
         style="stop-color:#1e2c64;stop-opacity:1" />
    </linearGradient>
    <linearGradient
       osb:paint="solid"
       id="linearGradient1850">
      <stop
         id="stop1848"
         offset="0"
         style="stop-color:#abdd43;stop-opacity:1;" />
    </linearGradient>
    <linearGradient
       gradientTransform="rotate(135,673.96171,692.11585)"
       gradientUnits="userSpaceOnUse"
       y2="591.30566"
       x2="843.53516"
       y1="591.30566"
       x1="420.10547"
       id="linearGradient2673"
       xlink:href="#linearGradient2671"
       inkscape:collect="always" />
    <linearGradient
       gradientTransform="matrix(-0.18708867,0.18708867,-0.18708867,-0.18708867,383.07442,157.25166)"
       gradientUnits="userSpaceOnUse"
       y2="917.30371"
       x2="1240.2852"
       y1="917.30371"
       x1="794.46094"
       id="linearGradient2689"
       xlink:href="#linearGradient2687"
       inkscape:collect="always" />
    <linearGradient
       inkscape:collect="always"
       xlink:href="#linearGradient2703"
       id="linearGradient2705-5"
       x1="424.30905"
       y1="649.51636"
       x2="420.10547"
       y2="966.24414"
       gradientUnits="userSpaceOnUse"
       gradientTransform="matrix(-0.20664404,0.20664404,-0.20664404,-0.20664404,412.33502,167.22528)" />
    <linearGradient
       y2="591.30566"
       x2="843.53516"
       y1="591.30566"
       x1="420.10547"
       gradientTransform="matrix(-0.20664404,0.20664404,-0.20664404,-0.20664404,412.31389,167.24664)"
       gradientUnits="userSpaceOnUse"
       id="linearGradient2821"
       xlink:href="#linearGradient2671"
       inkscape:collect="always" />
    <linearGradient
       gradientTransform="matrix(1.1709607,0,0,1.2992001,136.00253,503.93866)"
       gradientUnits="userSpaceOnUse"
       y2="-205.38181"
       x2="-0.17036144"
       y1="-205.38181"
       x1="-186.14658"
       id="linearGradient2960"
       xlink:href="#linearGradient2982"
       inkscape:collect="always" />
    <linearGradient
       gradientTransform="matrix(1.1709607,0,0,1.2992001,136.00253,503.93866)"
       gradientUnits="userSpaceOnUse"
       y2="-164.89404"
       x2="-67.277664"
       y1="-164.89404"
       x1="-182.30408"
       id="linearGradient2968"
       xlink:href="#linearGradient2974"
       inkscape:collect="always" />
    <linearGradient
       gradientTransform="matrix(1.1709607,0,0,1.2992001,136.00253,503.93866)"
       gradientUnits="userSpaceOnUse"
       y2="-171.51312"
       x2="-0.54465717"
       y1="-171.51312"
       x1="-100.40145"
       id="linearGradient2992"
       xlink:href="#linearGradient2998"
       inkscape:collect="always" />
    <linearGradient
       gradientTransform="matrix(1.1709607,0,0,1.2992001,136.00253,503.93866)"
       gradientUnits="userSpaceOnUse"
       y2="-176.47806"
       x2="77.488838"
       y1="-176.47806"
       x1="-22.79665"
       id="linearGradient3008"
       xlink:href="#linearGradient3014"
       inkscape:collect="always" />
    <linearGradient
       gradientTransform="matrix(1.1709607,0,0,1.2992001,136.00253,503.93866)"
       gradientUnits="userSpaceOnUse"
       y2="-165.15659"
       x2="151.77457"
       y1="-165.15659"
       x1="54.457603"
       id="linearGradient3024"
       xlink:href="#linearGradient3030"
       inkscape:collect="always" />
    <linearGradient
       gradientTransform="matrix(1.1709607,0,0,1.2992001,136.00253,503.93866)"
       gradientUnits="userSpaceOnUse"
       y2="-253.87386"
       x2="52.221878"
       y1="-253.87386"
       x1="-22.907141"
       id="linearGradient3040"
       xlink:href="#linearGradient3046"
       inkscape:collect="always" />
  </defs>
  <sodipodi:namedview
     showguides="true"
     inkscape:window-maximized="1"
     inkscape:window-y="54"
     inkscape:window-x="0"
     inkscape:window-height="2032"
     inkscape:window-width="3840"
     showgrid="false"
     inkscape:document-rotation="0"
     inkscape:current-layer="layer1"
     inkscape:document-units="mm"
     inkscape:cy="257.73453"
     inkscape:cx="1170.8264"
     inkscape:zoom="0.5360825"
     inkscape:pageshadow="2"
     inkscape:pageopacity="0.0"
     borderopacity="1.0"
     bordercolor="#666666"
     pagecolor="#ffffff"
     id="base" />
  <metadata
     id="metadata5">
    <rdf:RDF>
      <cc:Work
         rdf:about="">
        <dc:format>image/svg+xml</dc:format>
        <dc:type
           rdf:resource="http://purl.org/dc/dcmitype/StillImage" />
      </cc:Work>
    </rdf:RDF>
  </metadata>
  <g
     transform="translate(81.630672,40.921206)"
     id="layer1"
     inkscape:groupmode="layer"
     inkscape:label="Lager 1">
    <path
       id="rect932-0-66"
       style="fill:url(#linearGradient3040);fill-opacity:1;stroke:none;stroke-width:1.4445399;stroke-linecap:round;stroke-linejoin:miter;stroke-miterlimit:4;stroke-dasharray:none;stroke-opacity:1;paint-order:normal"
       d="m 193.63444,218.99673 c 3.28335,-3.64256 3.24906,-9.58688 -0.0766,-13.27676 -0.11094,-0.12282 -0.22454,-0.24262 -0.3417,-0.35813 l -70.61422,-78.34766 -11.88924,13.19129 70.89875,78.66333 0.0105,-0.0117 c 0.0157,0.018 0.0313,0.0356 0.0472,0.0535 3.32551,3.68965 8.68271,3.72791 11.96578,0.0854 z"
       inkscape:connector-curvature="0"
       sodipodi:nodetypes="cccccccccc" />
    <path
       sodipodi:nodetypes="cccccccccc"
       id="rect932-0-9-4"
       style="fill:url(#linearGradient3024);fill-opacity:1;stroke:none;stroke-width:1.4445399;stroke-linecap:round;stroke-linejoin:miter;stroke-miterlimit:4;stroke-dasharray:none;stroke-opacity:1;paint-order:normal"
       d="m 310.18462,348.41168 c 3.28319,-3.64262 3.28321,-9.54865 1e-5,-13.1913 -0.0577,-0.0639 -0.11607,-0.12716 -0.17519,-0.1895 l -96.35121,-106.96408 -12.3269,12.76541 96.91507,107.52892 0.004,-0.003 c 0.0156,0.0176 0.0312,0.0354 0.0469,0.053 3.28303,3.64243 8.60575,3.64243 11.8888,0 z"
       inkscape:connector-curvature="0" />
    <path
       sodipodi:nodetypes="ccccccccccccccccscc"
       id="rect932-0-7-1-8-7"
       style="fill:url(#linearGradient3008);fill-opacity:1;stroke:none;stroke-width:1.4445399;stroke-linecap:round;stroke-linejoin:miter;stroke-miterlimit:4;stroke-dasharray:none;stroke-opacity:1;paint-order:normal"
       d="m 201.42751,222.22217 c -4.30298,8e-5 -8.60579,1.82111 -11.88878,5.46377 -0.0667,0.074 -0.13309,0.14867 -0.19872,0.22374 l -78.49815,87.09501 10.89625,12.08958 h 1.98636 l 77.70283,-86.21181 -1e-5,-6.8e-4 v 0 c 6.56519,-7.28411 17.21025,-7.28597 23.77673,-0.004 l 7.2e-4,-8.2e-4 -11.88677,-13.18859 -0.003,-0.001 -6e-4,-6.7e-4 0.001,0.003 -7.3e-4,-8.2e-4 -6.1e-4,-6.9e-4 c -3.28314,-3.64252 -7.58583,-5.46314 -11.8888,-5.46305 z"
       inkscape:connector-curvature="0" />
    <path
       id="rect932-0-7-1-0"
       style="fill:url(#linearGradient2992);fill-opacity:1;stroke:none;stroke-width:1.4445399;stroke-linecap:round;stroke-linejoin:miter;stroke-miterlimit:4;stroke-dasharray:none;stroke-opacity:1;paint-order:normal"
       d="m 134.59798,315.03313 c -6.56599,7.28533 -17.21176,7.28556 -23.77801,6.8e-4 -0.24938,-0.27708 -0.49085,-0.56282 -0.72401,-0.8568 L 98.951546,301.81193 88.704147,290.44225 43.892528,240.72302 32.195634,253.7009 20.306866,240.51012 c 14.578147,-16.15354 13.852153,-15.70476 -0.343586,0.0457 4.246825,4.79472 79.798793,88.47514 79.798793,88.47514 6.651487,6.46673 16.678667,6.10913 22.942917,-0.81065 l 0.004,0.004 z"
       sodipodi:nodetypes="ccccccccccccc"
       inkscape:connector-curvature="0" />
    <path
       sodipodi:nodetypes="cccccscccccccccccc"
       id="rect932-0-6-7"
       style="fill:#37e938;fill-opacity:1;stroke:none;stroke-width:1.4445399;stroke-linecap:round;stroke-linejoin:miter;stroke-miterlimit:4;stroke-dasharray:none;stroke-opacity:1;paint-order:normal"
       d="m 120.091,224.95659 -5.99308,-6.64939 6.3e-4,-6.9e-4 -28.653346,-31.79137 v 0 c -3.299891,-3.52401 -8.540186,-3.46363 -11.77908,0.12939 l -7.26e-4,8.2e-4 v 0 l -5.95022,6.59047 5.94484,6.59589 7.98e-4,-7.5e-4 0.0041,0.004 c 0.06603,0.0732 0.132773,0.14569 0.2017,0.21567 l 28.098044,31.17522 c 0.0918,0.1133 0.18655,0.22358 0.28365,0.33132 3.2825,3.64135 8.60373,3.64194 11.88685,10e-4 l 7.5e-4,8e-4 z"
       inkscape:connector-curvature="0" />
    <path
       sodipodi:nodetypes="ccccccccccccccccc"
       id="rect932-3-8-6"
       style="fill:url(#linearGradient2968);fill-opacity:1;stroke:none;stroke-width:1.4445399;stroke-linecap:round;stroke-linejoin:miter;stroke-miterlimit:4;stroke-dasharray:none;stroke-opacity:1;paint-order:normal"
       d="m 55.795456,253.89915 -11.889234,-13.19132 -0.0031,0.003 c -6.566816,-7.2746 -17.203783,-7.27116 -23.76667,0.008 l -0.0083,-0.01 11.889245,-13.19129 -0.09164,-0.10175 -107.8751,119.68917 c 0.05857,0.0675 0.117649,0.13445 0.177204,0.20084 6.383973,7.08256 16.989985,6.91181 23.936795,-0.3854 l 0.0062,0.008 62.572484,-69.4256 9.38162,-10.40906 11.891598,-13.19392 v 0 c 6.541647,-7.2548 17.200113,-7.21387 23.775171,0.004 z"
       inkscape:connector-curvature="0" />
    <path
       sodipodi:nodetypes="cccsccccscccccccccccccccc"
       id="rect932-8"
       style="fill:url(#linearGradient2960);fill-opacity:1;stroke:none;stroke-width:1.4445399;stroke-linecap:round;stroke-linejoin:miter;stroke-miterlimit:4;stroke-dasharray:none;stroke-opacity:1;paint-order:normal"
       d="m 134.45857,140.16927 -11.43981,-12.69263 c -0.13847,-0.16503 -0.27901,-0.32795 -0.42272,-0.4874 -6.56619,-7.28555 -17.2123,-7.28555 -23.778481,-2e-5 -0.19319,0.21442 -0.38129,0.43443 -0.565257,0.65856 l -173.115887,192.0749 c -0.382129,0.35469 -0.749868,0.72806 -1.102079,1.119 -6.56579,7.28517 -6.56579,19.09641 0,26.38157 6.565967,7.28541 17.211724,7.2857 23.778022,6.9e-4 l 0.01648,-0.0183 c -3.344508,2.97974 -8.17456,2.68801 -11.207774,-0.67696 -3.147712,-3.49222 -3.296294,-9.10148 -0.338859,-12.79279 v 0 l 0.125382,-0.15375 c 0.07028,-0.0828 0.140507,-0.16565 0.212989,-0.24607 0.07122,-0.0788 0.143597,-0.15607 0.217561,-0.23163 l 16.259866,-18.04056 0.0062,0.008 73.604941,-81.66528 72.121375,-80.01985 7.3e-4,8.1e-4 11.881211,-13.1824 6.2e-4,6.9e-4 c 6.55322,-7.26926 17.17248,-7.28401 23.74303,-0.0341 z"
       inkscape:connector-curvature="0" />
    <path
       sodipodi:nodetypes="cccccscccccccccccc"
       d="m -23.257492,-34.82867 5.993064,6.649407 3.11e-4,-5.37e-4 119.726097,132.83807 v 0 c 3.17615,3.66127 3.12171,9.47496 -0.11661,13.06856 l -7.6e-4,7.9e-4 v 0 l -5.939709,6.60161 -5.944842,-6.5959 0.001,-0.003 -0.0041,-0.004 c -0.06593,-0.0733 -0.130576,-0.14814 -0.194351,-0.22376 L -28.908598,-14.719947 c -0.10211,-0.10192 0.09713,0.107701 0,0 -3.281999,-3.64195 -3.581009,-9.860821 -0.299736,-13.503568 v 0 z"
       style="fill:#37e938;fill-opacity:1;stroke:none;stroke-width:1.4445399;stroke-linecap:round;stroke-linejoin:miter;stroke-miterlimit:4;stroke-dasharray:none;stroke-opacity:1;paint-order:normal"
       id="rect932-0-6-6-9"
       inkscape:connector-curvature="0" />
  </g>
</svg>
